<svg viewBox="0 -6.3 959.9999999999999 775.1" xmlns="http://www.w3.org/2000/svg" width="2500" height="2035"><linearGradient id="a" gradientTransform="matrix(-322.09 -1118.889 1000.403 -287.982 360.302 568.205)" gradientUnits="userSpaceOnUse" x2="1"><stop offset="0" stop-color="#e3d9ff"/><stop offset="1" stop-color="#7341ff"/></linearGradient><radialGradient id="b" cx="819.272" cy="222.649" gradientUnits="userSpaceOnUse" r="959.595"><stop offset=".556" stop-color="#6d4aff"/><stop offset=".994" stop-color="#aa8eff"/></radialGradient><linearGradient id="c" gradientTransform="matrix(-740.589 -1597.606 1188.033 -550.727 1270.461 1266.562)" gradientUnits="userSpaceOnUse" x2="1"><stop offset=".271" stop-color="#e3d9ff"/><stop offset="1" stop-color="#7341ff"/></linearGradient><path d="M609.6 266.7h.1L342.9 563 0 185.5V22.6C0 3.9 21.8-6.3 36.2 5.6l380.4 316c36.7 30.6 90.1 30.6 126.8 0z" fill="url(#a)"/><path d="M754.3 146.5L609.6 266.7h.1L418.1 436c-32.6 28.8-81.4 29.6-114.9 1.7L0 185.5v483.9c0 54.9 44.5 99.4 99.3 99.4h655l68.6-311.2z" fill="url(#b)"/><path d="M754.3 146.6v622.2h106.4c54.8 0 99.3-44.5 99.3-99.4V22.6c0-18.7-21.8-28.9-36.2-17z" fill="url(#c)"/></svg>